<svg xmlns="http://www.w3.org/2000/svg" xmlns:xlink="http://www.w3.org/1999/xlink" width="1000" zoomAndPan="magnify" viewBox="0 0 750 562.499983" height="750" preserveAspectRatio="xMidYMid meet" version="1.0"><path fill="#000000" d="M 259.210938 200.230469 C 261.609375 195.898438 264.992188 194.457031 273.183594 194.457031 C 281.375 194.457031 287.144531 195.402344 297.261719 201.203125 C 312.679688 209.894531 328.09375 219.058594 343.980469 228.21875 C 377.21875 208.921875 410.4375 189.621094 444.148438 170.328125 C 447.53125 168.882812 451.386719 168.882812 454.269531 170.328125 C 457.648438 172.253906 461.035156 174.183594 464.882812 176.601562 C 469.695312 179.488281 471.136719 184.320312 468.242188 189.148438 C 467.769531 190.109375 465.828125 191.566406 464.882812 192.511719 C 446.089844 209.890625 427.316406 227.25 408.519531 245.101562 C 405.636719 249.921875 402.753906 255.238281 399.375 260.542969 C 411.902344 267.761719 424.40625 275.007812 437.410156 282.226562 C 440.320312 284.65625 442.234375 286.585938 444.648438 289 C 446.574219 290.917969 448.5 293.332031 450.429688 295.75 C 457.167969 290.917969 463.917969 285.617188 471.140625 280.3125 C 474.507812 277.425781 479.332031 276.941406 483.183594 279.339844 C 484.140625 279.839844 485.597656 280.796875 487.027344 281.757812 C 491.851562 284.171875 492.808594 288.515625 490.394531 293.332031 C 487.996094 297.191406 485.597656 301.539062 483.183594 305.882812 C 479.804688 311.675781 476.449219 317.460938 472.59375 323.738281 C 469.214844 329.527344 465.828125 335.3125 462.476562 341.589844 C 460.066406 345.449219 457.652344 349.769531 455.238281 354.128906 C 452.355469 358.949219 448.03125 359.921875 443.207031 357.015625 C 442.238281 356.53125 440.796875 356.058594 439.351562 355.085938 C 435.503906 352.671875 433.558594 348.339844 434.527344 343.996094 C 435.5 335.316406 436.46875 326.625 437.410156 317.9375 C 434.527344 317.9375 431.171875 317.9375 428.261719 316.964844 C 425.378906 316.007812 422.496094 315.050781 419.125 313.601562 C 406.609375 306.355469 394.078125 299.136719 381.546875 291.886719 C 378.664062 296.71875 375.785156 302.023438 372.402344 307.328125 C 366.617188 332.414062 360.839844 357.503906 355.070312 382.578125 C 355.070312 383.546875 354.574219 385.960938 354.101562 387.40625 C 351.21875 392.226562 346.394531 393.183594 341.574219 390.796875 C 338.203125 388.851562 334.835938 386.9375 330.984375 384.503906 C 328.097656 382.578125 326.160156 379.214844 325.6875 375.828125 L 325.6875 259.570312 C 310.269531 250.878906 294.855469 241.714844 278.957031 232.554688 C 268.847656 226.777344 265.46875 222.433594 261.140625 215.199219 C 257.285156 207.953125 256.789062 204.578125 259.210938 200.230469 " fill-opacity="1" fill-rule="evenodd"/></svg>